<mxfile host="app.diagrams.net" agent="Mozilla/5.0 (Macintosh; Intel Mac OS X 10_15_7) AppleWebKit/537.36 (KHTML, like Gecko) Chrome/138.0.0.0 Safari/537.36" version="27.2.0">
  <diagram name="Page-1" id="e_FhumazfKeIWUTHgoEl">
    <mxGraphModel dx="818" dy="529" grid="1" gridSize="10" guides="1" tooltips="1" connect="1" arrows="1" fold="1" page="1" pageScale="1" pageWidth="827" pageHeight="1169" math="0" shadow="0">
      <root>
        <mxCell id="0" />
        <mxCell id="1" parent="0" />
        <mxCell id="tiZeCAjrC8-_TYPctkw3-27" value="" style="rounded=0;whiteSpace=wrap;html=1;fillColor=#fff2cc;strokeColor=#d6b656;" vertex="1" parent="1">
          <mxGeometry x="90" y="110" width="490" height="360" as="geometry" />
        </mxCell>
        <mxCell id="tiZeCAjrC8-_TYPctkw3-3" value="" style="shape=mxgraph.cisco.servers.www_server;sketch=0;html=1;pointerEvents=1;dashed=0;fillColor=#036897;strokeColor=#ffffff;strokeWidth=2;verticalLabelPosition=bottom;verticalAlign=top;align=center;outlineConnect=0;" vertex="1" parent="1">
          <mxGeometry x="120" y="340" width="66" height="67" as="geometry" />
        </mxCell>
        <mxCell id="tiZeCAjrC8-_TYPctkw3-5" value="" style="shape=mxgraph.cisco.computers_and_peripherals.laptop;sketch=0;html=1;pointerEvents=1;dashed=0;fillColor=#036897;strokeColor=#ffffff;strokeWidth=2;verticalLabelPosition=bottom;verticalAlign=top;align=center;outlineConnect=0;" vertex="1" parent="1">
          <mxGeometry x="120" y="140" width="90" height="61" as="geometry" />
        </mxCell>
        <mxCell id="tiZeCAjrC8-_TYPctkw3-6" value="" style="shape=mxgraph.cisco.computers_and_peripherals.ibm_mainframe;sketch=0;html=1;pointerEvents=1;dashed=0;fillColor=#036897;strokeColor=#ffffff;strokeWidth=2;verticalLabelPosition=bottom;verticalAlign=top;align=center;outlineConnect=0;" vertex="1" parent="1">
          <mxGeometry x="128" y="240" width="50" height="70" as="geometry" />
        </mxCell>
        <mxCell id="tiZeCAjrC8-_TYPctkw3-9" value="" style="shape=mxgraph.cisco.switches.layer_2_remote_switch;sketch=0;html=1;pointerEvents=1;dashed=0;fillColor=#036897;strokeColor=#ffffff;strokeWidth=2;verticalLabelPosition=bottom;verticalAlign=top;align=center;outlineConnect=0;" vertex="1" parent="1">
          <mxGeometry x="280" y="240" width="101" height="50" as="geometry" />
        </mxCell>
        <mxCell id="tiZeCAjrC8-_TYPctkw3-10" value="" style="shape=mxgraph.cisco.routers.router;sketch=0;html=1;pointerEvents=1;dashed=0;fillColor=#036897;strokeColor=#ffffff;strokeWidth=2;verticalLabelPosition=bottom;verticalAlign=top;align=center;outlineConnect=0;" vertex="1" parent="1">
          <mxGeometry x="460" y="237" width="78" height="53" as="geometry" />
        </mxCell>
        <mxCell id="tiZeCAjrC8-_TYPctkw3-11" value="" style="endArrow=none;html=1;rounded=0;entryX=0;entryY=0.5;entryDx=0;entryDy=0;entryPerimeter=0;exitX=1;exitY=0.5;exitDx=0;exitDy=0;exitPerimeter=0;" edge="1" parent="1" source="tiZeCAjrC8-_TYPctkw3-9" target="tiZeCAjrC8-_TYPctkw3-10">
          <mxGeometry width="50" height="50" relative="1" as="geometry">
            <mxPoint x="390" y="300" as="sourcePoint" />
            <mxPoint x="440" y="250" as="targetPoint" />
          </mxGeometry>
        </mxCell>
        <mxCell id="tiZeCAjrC8-_TYPctkw3-12" value="" style="endArrow=none;html=1;rounded=0;" edge="1" parent="1" source="tiZeCAjrC8-_TYPctkw3-5" target="tiZeCAjrC8-_TYPctkw3-9">
          <mxGeometry width="50" height="50" relative="1" as="geometry">
            <mxPoint x="210" y="191.5" as="sourcePoint" />
            <mxPoint x="289" y="190.5" as="targetPoint" />
          </mxGeometry>
        </mxCell>
        <mxCell id="tiZeCAjrC8-_TYPctkw3-16" value="" style="endArrow=none;html=1;rounded=0;exitX=1;exitY=0.5;exitDx=0;exitDy=0;exitPerimeter=0;" edge="1" parent="1" source="tiZeCAjrC8-_TYPctkw3-6" target="tiZeCAjrC8-_TYPctkw3-9">
          <mxGeometry width="50" height="50" relative="1" as="geometry">
            <mxPoint x="210" y="253" as="sourcePoint" />
            <mxPoint x="287" y="296.9" as="targetPoint" />
          </mxGeometry>
        </mxCell>
        <mxCell id="tiZeCAjrC8-_TYPctkw3-17" value="" style="endArrow=none;html=1;rounded=0;" edge="1" parent="1" source="tiZeCAjrC8-_TYPctkw3-3" target="tiZeCAjrC8-_TYPctkw3-9">
          <mxGeometry width="50" height="50" relative="1" as="geometry">
            <mxPoint x="210" y="310" as="sourcePoint" />
            <mxPoint x="287" y="354" as="targetPoint" />
          </mxGeometry>
        </mxCell>
        <mxCell id="tiZeCAjrC8-_TYPctkw3-18" value="Host 1" style="text;html=1;align=center;verticalAlign=middle;resizable=0;points=[];autosize=1;strokeColor=none;fillColor=none;" vertex="1" parent="1">
          <mxGeometry x="150" y="118" width="60" height="30" as="geometry" />
        </mxCell>
        <mxCell id="tiZeCAjrC8-_TYPctkw3-19" value="Host2" style="text;html=1;align=center;verticalAlign=middle;resizable=0;points=[];autosize=1;strokeColor=none;fillColor=none;" vertex="1" parent="1">
          <mxGeometry x="131" y="218" width="50" height="30" as="geometry" />
        </mxCell>
        <mxCell id="tiZeCAjrC8-_TYPctkw3-20" value="Server" style="text;html=1;align=center;verticalAlign=middle;resizable=0;points=[];autosize=1;strokeColor=none;fillColor=none;" vertex="1" parent="1">
          <mxGeometry x="120" y="407" width="60" height="30" as="geometry" />
        </mxCell>
        <mxCell id="tiZeCAjrC8-_TYPctkw3-21" value="Switch" style="text;html=1;align=center;verticalAlign=middle;resizable=0;points=[];autosize=1;strokeColor=none;fillColor=none;" vertex="1" parent="1">
          <mxGeometry x="305" y="207" width="60" height="30" as="geometry" />
        </mxCell>
        <mxCell id="tiZeCAjrC8-_TYPctkw3-22" value="Router" style="text;html=1;align=center;verticalAlign=middle;resizable=0;points=[];autosize=1;strokeColor=none;fillColor=none;" vertex="1" parent="1">
          <mxGeometry x="460" y="288" width="60" height="30" as="geometry" />
        </mxCell>
        <mxCell id="tiZeCAjrC8-_TYPctkw3-23" value="103.0.0.2" style="text;html=1;align=center;verticalAlign=middle;resizable=0;points=[];autosize=1;strokeColor=none;fillColor=none;" vertex="1" parent="1">
          <mxGeometry x="123" y="191" width="70" height="30" as="geometry" />
        </mxCell>
        <mxCell id="tiZeCAjrC8-_TYPctkw3-24" value="103.0.0.3/104.0.0.3" style="text;html=1;align=center;verticalAlign=middle;resizable=0;points=[];autosize=1;strokeColor=none;fillColor=none;" vertex="1" parent="1">
          <mxGeometry x="84" y="301" width="130" height="30" as="geometry" />
        </mxCell>
        <mxCell id="tiZeCAjrC8-_TYPctkw3-25" value="103.0.0.4" style="text;html=1;align=center;verticalAlign=middle;resizable=0;points=[];autosize=1;strokeColor=none;fillColor=none;" vertex="1" parent="1">
          <mxGeometry x="110" y="420" width="70" height="30" as="geometry" />
        </mxCell>
        <mxCell id="tiZeCAjrC8-_TYPctkw3-26" value="103.0.0.254" style="text;html=1;align=center;verticalAlign=middle;resizable=0;points=[];autosize=1;strokeColor=none;fillColor=none;" vertex="1" parent="1">
          <mxGeometry x="440" y="310" width="90" height="30" as="geometry" />
        </mxCell>
        <mxCell id="tiZeCAjrC8-_TYPctkw3-28" value="VLAN100" style="text;html=1;align=center;verticalAlign=middle;whiteSpace=wrap;rounded=0;" vertex="1" parent="1">
          <mxGeometry x="290" y="410" width="60" height="30" as="geometry" />
        </mxCell>
      </root>
    </mxGraphModel>
  </diagram>
</mxfile>
